<?xml version="1.0" encoding="iso-8859-1"?>
<!-- Uploaded to: SVG Repo, www.svgrepo.com, Generator: SVG Repo Mixer Tools -->
<svg height="800px" width="800px" version="1.1" id="Layer_1" xmlns="http://www.w3.org/2000/svg" xmlns:xlink="http://www.w3.org/1999/xlink" 
	 viewBox="0 0 485 485" xml:space="preserve">
<g>
	<g id="XMLID_19_">
		<g>
			<path style="fill:#7D3DAF;" d="M472.5,110v175c0,55.2-44.8,100-100,100h-90l-120,90v-90h-50c-55.2,0-100-44.8-100-100V110
				c0-55.2,44.8-100,100-100h260C427.7,10,472.5,54.8,472.5,110z"/>
		</g>
		<g>
			<g>
				<path style="fill:#231F20;" d="M162.499,485c-1.524,0-3.056-0.348-4.471-1.056c-3.389-1.694-5.528-5.157-5.528-8.944v-80h-40
					c-60.654,0-110-49.346-110-110V110c0-60.654,49.346-110,110-110h260c60.654,0,110,49.346,110,110v175
					c0,60.654-49.346,110-110,110h-86.667L168.5,483C166.735,484.323,164.624,485,162.499,485z M112.5,20c-49.626,0-90,40.374-90,90
					v175c0,49.626,40.374,90,90,90h50c5.523,0,10,4.477,10,10v70l104-78c1.731-1.298,3.836-2,6-2h90c49.626,0,90-40.374,90-90V110
					c0-49.626-40.374-90-90-90H112.5z"/>
			</g>
		</g>
	</g>
	<g>
		<g id="XMLID_17_">
			<g>
				<g>
					<path style="fill:#FFFFFF;" d="M314.5,289.9c4,3.9,4,10.3,0,14.2L268.6,350c0,0-44-5.5-111.1-72.7
						c-67.2-67.2-72.8-111.1-72.8-111.1l46-46c3.899-3.9,10.2-3.9,14.1,0l49.5,49.5c3.9,3.9,3.9,10.3,0,14.2l-21.2,21.2l56.601,56.5
						l21.2-21.2c3.899-3.9,10.199-3.9,14.199,0L314.5,289.9z"/>
				</g>
			</g>
			<g>
				<g>
					<path style="fill:#231F20;" d="M268.601,360c-0.413,0-0.827-0.025-1.241-0.077c-1.936-0.242-48.199-6.718-116.936-75.557
						c-68.82-68.819-75.396-114.969-75.644-116.9c-0.392-3.07,0.66-6.148,2.849-8.336l46-46c3.774-3.775,8.789-5.854,14.121-5.854
						s10.347,2.08,14.122,5.855l49.499,49.499c3.774,3.774,5.854,8.807,5.854,14.171c0,5.363-2.079,10.396-5.854,14.171
						l-14.122,14.122l42.446,42.371l14.135-14.136c3.774-3.774,8.794-5.854,14.133-5.854c5.292,0,10.306,2.047,14.118,5.765
						c0.033,0.032,0.065,0.064,0.098,0.096l49.362,49.461c3.844,3.778,5.96,8.818,5.96,14.203c0,5.383-2.116,10.423-5.959,14.201
						l-35.32,35.319l-10.55,10.551C273.784,358.958,271.235,360,268.601,360z M95.676,169.366
						c3.484,12.321,17.516,49.483,68.896,100.862c51.844,51.922,88.557,65.533,100.807,68.851l42.038-42.038
						c0.015-0.014,0.028-0.028,0.042-0.042c-0.013-0.013-0.024-0.025-0.036-0.036L258.1,247.541
						c-0.051-0.045-0.095-0.066-0.137-0.066l-21.19,21.196c-3.902,3.903-10.229,3.905-14.136,0.006l-56.6-56.5
						c-1.879-1.874-2.935-4.419-2.936-7.073c-0.001-2.654,1.053-5.199,2.929-7.075l21.2-21.201l-49.5-49.557L95.676,169.366z"/>
				</g>
			</g>
		</g>
	</g>
	<g>
		<g>
			<path style="fill:#231F20;" d="M347.5,210h-20c0-49.626-40.374-90-90-90v-20C298.154,100,347.5,149.346,347.5,210z"/>
		</g>
		<g>
			<path style="fill:#231F20;" d="M302.5,205h-20c0-24.813-20.186-45-45-45v-20C273.341,140,302.5,169.159,302.5,205z"/>
		</g>
		<g>
			<path style="fill:#231F20;" d="M392.5,215h-20c0-74.439-60.56-135-135-135V60C322.968,60,392.5,129.533,392.5,215z"/>
		</g>
	</g>
</g>
</svg>